<svg width="18" height="16" viewBox="0 0 18 16" fill="none" xmlns="http://www.w3.org/2000/svg">
<path d="M14 15.5H4C2.1 15.5 0.5 13.9 0.5 12V7.19995C0.5 5.29995 2.1 3.69995 4 3.69995H14C15.9 3.69995 17.5 5.29995 17.5 7.19995V12C17.5 13.9 15.9 15.5 14 15.5ZM4 4.69995C2.6 4.69995 1.5 5.89995 1.5 7.19995V12C1.5 13.4 2.6 14.5 4 14.5H14C15.4 14.5 16.5 13.4 16.5 12V7.19995C16.5 5.79995 15.4 4.69995 14 4.69995H4Z" fill="#333333"/>
<path d="M5.3 15.5C5 15.5 4.8 15.3 4.8 15V4.19995C4.8 3.89995 5 3.69995 5.3 3.69995C5.6 3.69995 5.8 3.89995 5.8 4.19995V15C5.8 15.3 5.5 15.5 5.3 15.5Z" fill="#333333"/>
<path d="M12.7 15.5C12.4 15.5 12.2 15.3 12.2 15V4.19995C12.2 3.89995 12.4 3.69995 12.7 3.69995C13 3.69995 13.2 3.89995 13.2 4.19995V15C13.2 15.3 13 15.5 12.7 15.5Z" fill="#333333"/>
<path d="M11.7 4.5C11.4 4.5 11.2 4.3 11.2 4V2.1C11.2 1.8 10.9 1.5 10.6 1.5H7.4C7.1 1.5 6.8 1.8 6.8 2.1V4C6.8 4.3 6.6 4.5 6.3 4.5C6 4.5 5.8 4.2 5.8 3.9V2.1C5.8 1.2 6.5 0.5 7.4 0.5H10.6C11.5 0.5 12.2 1.2 12.2 2.1V4C12.2 4.2 11.9 4.5 11.7 4.5Z" fill="#333333"/>
</svg>
